# xmcd
#
# Track frame offsets: 
#        180
#        16960
#        32084
#        44326
#        58776
#        68183
#        79654
#        89656
#        111202
#        116235
#        126695
#        143298
#        154746
#
# Disc length: 2694 seconds
#
# Revision: 0
# Processed by: cddbd v1.5PL3 Copyright (c) Steve Scherf et al.
# Submitted via: ExactAudioCopy v0.95a5
#
DISCID=b50a840d
DTITLE=Various Artist - Sisters of the South
DYEAR=2003
DGENRE=Blues
TTITLE0=I Know I've Been Changed - The Branchettes
TTITLE1=Baghdad Blues - Beverly "Guitar" Watkins
TTITLE2=If You Don't Love Me, Would You Fool Me Good? - Precious Bryan
TTITLE2=t
TTITLE3=One-Dime Blues - Etta Baker
TTITLE4=Yo-Yo - Willa Mae Bruckner
TTITLE5=Hard Luck and Trouble - Marie Manning
TTITLE6=Step it Up and Go - Algia Mae Hinton
TTITLE7=Coffee Drinkin' Blues - Sweet Betty
TTITLE8=I Love the Lord - Lucille Lindsay
TTITLE9=Com On in the Room - Lucille Lindsay
TTITLE10=Feel Like My Time A'int Long - Essie Mae Brooks
TTITLE11=Born in Newton County - Cora Mae Bryant
TTITLE12=Cora's Testimony - Cora Fluker
EXTD=
EXTT0=
EXTT1=
EXTT2=
EXTT3=
EXTT4=
EXTT5=
EXTT6=
EXTT7=
EXTT8=
EXTT9=
EXTT10=
EXTT11=
EXTT12=
PLAYORDER=
